# xmcd
#
# Track frame offsets: 
#        150
#        18341
#        37163
#        52462
#        75159
#        93382
#        114024
#        131423
#        149208
#        165451
#        180949
#        196313
#
# Disc length: 2846 seconds
#
# Revision: 0
# Processed by: cddbd v1.5.2PL0 Copyright (c) Steve Scherf et al.
# Submitted via: ExactAudioCopy v1.1
#
DISCID=9a0b1c0c
DTITLE=Shing02 and DJ $hin - 1200 Ways
DYEAR=2013
DGENRE=Hip-Hop
TTITLE0=I'm That Boy
TTITLE1=Sweet Discovery
TTITLE2=1200 Ways
TTITLE3=When You Come Around
TTITLE4=Hi-Coast
TTITLE5=Look Fwd
TTITLE6=Fresh Outta Box
TTITLE7=Squeeze On It
TTITLE8=Back Door Slider
TTITLE9=Tag Monkey
TTITLE10=Tag Monkey Remix
TTITLE11=1200 Ways Remix
EXTD=
EXTT0=
EXTT1=
EXTT2=
EXTT3=
EXTT4=
EXTT5=
EXTT6=
EXTT7=
EXTT8=
EXTT9=
EXTT10=
EXTT11=
PLAYORDER=
